<?xml version="1.0" encoding="UTF-8" standalone="no"?>
<!-- Created with Inkscape (http://www.inkscape.org/) -->
<svg id="svg3336" xmlns:rdf="http://www.w3.org/1999/02/22-rdf-syntax-ns#" xmlns="http://www.w3.org/2000/svg" height="800" viewBox="0 0 800 800" width="800" version="1.1" xmlns:cc="http://creativecommons.org/ns#" xmlns:dc="http://purl.org/dc/elements/1.1/">
 <metadata id="metadata3342">
  <rdf:RDF>
   <cc:Work rdf:about="">
    <dc:format>image/svg+xml</dc:format>
    <dc:type rdf:resource="http://purl.org/dc/dcmitype/StillImage"/>
    <dc:title/>
   </cc:Work>
  </rdf:RDF>
 </metadata>
 <path id="path3354" d="m22.243 800.76c-2.6125-0.206-4.75-0.55265-4.75-0.77034 0-0.21768 1.6083-7.1454 3.574-15.395l3.574-14.999 4.176-0.57427c2.2968-0.31586 6.651-0.9015 9.676-1.3014l5.5-0.72715 3.7433-6.9987c5.6056-10.481 10.253-26.491 14.805-50.999 4.5914-24.723 5.9519-30.651 9.5816-41.75l2.5346-7.75h17.918c9.8548 0 17.918 0.19848 17.918 0.44108 0 1.3344-15.695 71.566-19.084 85.395-7.0869 28.921-10.163 37.111-16.626 44.264-9.2886 10.281-24.026 13.413-52.54 11.165zm437.25-52.28c-6.8758-0.38389-15.058-1.4413-18.184-2.3498-10.875-3.1616-19.59-12.478-21.883-23.395-2.7969-13.313 5.5114-54.395 14.701-72.69 9.396-18.707 32.294-31.517 59.388-33.224 22.627-1.4256 41.527 6.9072 48.673 21.46 2.6925 5.483 2.8014 6.2814 2.6894 19.714-0.0874 10.481-0.72625 17.016-2.5414 26l-2.4246 12-41.238 0.26112-41.238 0.26111-1.056 2.7389c-1.3993 3.629-0.50488 9.8894 1.7793 12.455 3.9727 4.4613 7.1199 4.9176 41.271 5.9833 17.91 0.55887 32.75 1.1918 32.978 1.4065 0.46376 0.43672-5.0895 27.091-5.8988 28.313-0.72467 1.0941-51.926 1.9084-67.017 1.0658zm49.557-82.35c0.90866-3.6204-1.2092-9.9377-4.2897-12.796-8.4272-7.8189-27.818-6.1022-35.605 3.1522-2.5003 2.9715-6.6613 10.136-6.6613 11.47 0 0.29691 10.341 0.53984 22.981 0.53984h22.981l0.59375-2.3657zm-341.56 81.714c-22.11-2.0934-37.279-14.608-42.326-34.92-4.7361-19.063-1.9065-47.199 6.9582-69.188 9.7036-24.07 24.217-41.169 42.867-50.505 11.35-5.6818 21.069-7.9701 36.056-8.4893 12.095-0.41905 15.23-0.19031 22.464 1.6392 22.45 5.6772 36.293 17.814 43.285 37.949 2.5987 7.484 3.0103 10.096 3.0201 19.165 0.0139 12.883-2.0128 21.539-11.589 49.5-3.7676 11-7.102 20.788-7.4098 21.75-0.50356 1.5746 0.30412 1.75 8.057 1.75 7.1363 0 8.6166 0.26775 8.6166 1.5585 0 0.85718-1.3006 6.8197-2.8902 13.25s-3.1732 12.929-3.519 14.442l-0.62882 2.75-49.731-0.16004c-27.352-0.088-51.306-0.30915-53.231-0.49141zm57.393-34.099c3.0208-10.022 10.262-36.782 13.183-48.717 5.1797-21.164 4.1257-29.678-4.7761-38.58-5.8569-5.8569-10.848-7.4537-23.3-7.4537-10.01 0-11.561 0.25918-17.234 2.8795-13.537 6.2525-21.305 20.266-27.278 49.205-4.5076 21.842-3.7082 30.112 3.5895 37.129 6.6079 6.3543 10.351 7.1348 34.605 7.2165 18.866 0.0635 20.729-0.0841 21.21-1.6804zm91.722 33.622c-6.6613-1.1062-14.589-5.3156-17.705-9.4013-7.2714-9.5333-8.6354-19.879-5.4673-41.471 2.1704-14.792 13.574-73.409 14.606-75.079 0.31302-0.50648 7.988-0.92088 17.055-0.92088h16.486l-0.50328 3.25c-0.2768 1.7875-0.77545 5.95-1.1081 9.25-0.33266 3.3-2.412 13.875-4.6209 23.5-2.2088 9.625-4.6549 21.1-5.4358 25.5-1.4621 8.2383-1.9065 25.83-0.79314 31.397l0.62941 3.1471 18.04-0.27206 18.04-0.27206 3.2097-14.5c1.7654-7.975 6.4951-29.462 10.511-47.75l7.3009-33.25h16.888c15.615 0 16.848 0.13188 16.368 1.75-0.28606 0.9625-6.1878 28.75-13.115 61.75s-12.847 61.012-13.156 62.25l-0.56075 2.25-35.642-0.1169c-19.603-0.0643-38.065-0.51936-41.027-1.0113zm230.89 0.59574c0-0.3188 6.075-29.112 13.5-63.986 7.425-34.873 13.5-63.682 13.5-64.019 0-1.1912 86.301 0.13211 90.134 1.382 8.0744 2.6331 12.046 8.3657 14.431 20.83 0.7893 4.1253 1.4351 7.911 1.4351 8.4126 0 0.53376-16.146 0.91203-38.929 0.91203h-38.929l-1.1087 5.25c-0.60979 2.8875-5.2601 24.6-10.334 48.25l-9.2254 43-17.237 0.27361c-9.4802 0.15049-17.237 0.0128-17.237-0.30603zm107.56-6.4293c3.4089-8.3894 4.6266-18.159 3.4348-27.559-1.1207-8.8392-1.6106-10.843-7.4526-30.48-2.3726-7.975-4.6303-16.412-5.0172-18.75l-0.70342-4.25h18.922 18.922l2.8054 9.5c1.543 5.225 3.08 9.498 3.4157 9.4956 0.33562-0.002 12.685-17.552 27.444-39l26.833-38.996h20.976c16.493 0 20.824 0.26714 20.265 1.25-0.39084 0.6875-4.4422 6.875-9.0031 13.75-7.5371 11.361-15.566 21.947-42.475 56-18.685 23.646-32.859 47.317-39.818 66.5l-2.9022 8-19.043 0.27138-19.043 0.27138 2.4398-6.0045zm-579.1-93.29c0.21996-0.6875 1.3573-5.525 2.5274-10.75s2.5684-11.188 3.1072-13.25l0.97975-3.75h17.961c10.266 0 17.961 0.39415 17.961 0.92 0 1.0879-4.8311 23.791-5.6028 26.33-0.48151 1.584-2.2776 1.75-18.933 1.75-14.268 0-18.311-0.2808-18.001-1.25zm331.04-129.76c-31.756-2.7943-56.98-8.4078-83.041-18.48-90.243-34.878-163.59-116.68-186.94-208.51-16.759-65.899-7.9269-128.6 25.09-178.11 9.7878-14.677 24.607-32.011 26.095-30.524 0.21934 0.21934-0.73957 6.4131-2.1309 13.764-5.0944 26.916-5.9775 36.64-6.0268 66.365-0.0537 32.381 1.2734 44.665 7.4617 69.065 19.39 76.456 70.956 136.96 158.41 185.87 33.687 18.841 65.398 28.849 106.58 33.639 15.24 1.7726 49.811 1.5237 65.334-0.47038 53.91-6.9254 99.919-27.468 134.48-60.045l8.5539-8.0619-5.2368 9.9898c-22.005 41.977-59.565 77.487-106.32 100.51-24.208 11.922-49.948 19.693-77.818 23.491-13.741 1.8727-50.507 2.723-64.5 1.4917zm78.69-172.04c-52.31-4.67-99.34-28.07-138.47-68.9-40.5-42.27-59.36-89.9-57.43-145.05 1.0919-31.263 8.7819-54.702 26.606-81.096 7.2474-10.732 14.699-19.766 13.706-16.618-0.30973 0.98269-1.5584 8.1827-2.7749 16-2.9236 18.788-3.1828 56.635-0.49469 72.213 10.652 61.729 44.187 107.66 104.89 143.65 42.134 24.986 77.618 34.962 119.28 33.535 41.45-1.4192 77.379-15.486 109.1-42.716 4.5798-3.9316 9.919-8.9105 11.865-11.064 1.9458-2.1538 3.534-3.5772 3.5292-3.1631-0.0188 1.645-10.373 21.058-14.716 27.59-23.011 34.614-58.185 58.35-103.23 69.662-22.483 5.6463-49.838 7.91-71.854 5.9462zm64.309-151.64c-8.6864-0.7755-25.973-4.5289-34.263-7.4396-34.085-11.967-59.895-35.768-77.751-71.698-9.7376-19.595-13.024-34.023-12.221-53.651 0.57471-14.036 2.9038-23.818 8.5293-35.823 3.7975-8.1037 13.082-23.151 13.826-22.407 0.20913 0.20913-0.13022 4.1673-0.75411 8.796-1.7652 13.096-0.5806 36.3 2.4506 48.001 9.3651 36.151 32.232 64.694 69.309 86.515 40.438 23.799 82.806 26.274 125.08 7.3068l6.349-2.8486-3.2127 4.7207c-4.9639 7.2938-16.575 18.444-24.628 23.652-19.254 12.451-43.748 17.461-72.715 14.875z" fill="#0767aa"/>
<path id="path3350" d="m24.154 800.82c-4.7712-0.29413-6.7043-0.78506-6.3943-1.6239 0.24441-0.66126 1.9268-7.5724 3.7386-15.358l3.2943-14.156 9.6689-1.1844 9.6689-1.1844 3.1763-5.7777c6.8256-12.416 11.051-27.065 16.165-56.042 3.0271-17.153 7.8879-37.418 10.184-42.457l1.1585-2.5426h17.733 17.733l-0.83571 3.75c-0.45963 2.0625-4.2525 19.214-8.4286 38.114-7.6844 34.779-14.02 60.62-17.081 69.675-5.2868 15.636-12.181 23.199-24.539 26.918-5.6426 1.6983-23.041 2.6207-35.242 1.8685zm142.84-53.39c-10.153-0.87505-15.768-2.6197-22.655-7.0385-14.58-9.3562-20.845-23.912-20.845-48.43 0-27.179 6.7131-49.783 21.143-71.192 11.848-17.578 26.896-28.093 48.521-33.906 9.5561-2.5688 33.114-2.5777 42.336-0.016 11.794 3.276 18.898 7.3516 27.103 15.548 16.318 16.301 20.759 36.358 13.972 63.095-1.6055 6.325-5.8792 20.05-9.4972 30.5-3.6179 10.45-6.5781 19.29-6.5782 19.644-0.00008 0.35427 3.5641 0.80598 7.9203 1.0038 4.3563 0.19783 8.1862 0.62536 8.5109 0.95008 0.32472 0.32472-1.0657 7.4105-3.0897 15.746l-3.6801 15.156-47.081-0.1425c-25.894-0.0784-51.131-0.49156-56.081-0.91818zm57.89-32.689c8.6915-28.985 16.61-61.531 16.61-68.269 0-15.412-9.1022-25.355-25.673-28.044-11.414-1.8521-23.811 1.7099-33.073 9.5027-8.4347 7.0974-18.439 37.58-19.875 60.561-0.56803 9.0872-0.46968 9.734 2.2634 14.885 2.206 4.1575 4.0224 6.042 7.9696 8.2688 6.5503 3.6952 12.889 4.5742 34.07 4.7245 15.56 0.11042 17.232-0.0433 17.707-1.6281zm95.11 32.735c-8.8926-0.94396-13.243-2.7858-18.903-8.0024-8.8874-8.1921-10.914-21.068-7.1573-45.483 1.8765-12.197 11.952-63.857 13.603-69.75l1.0509-3.75h16.101 16.101l-0.64717 8.25c-0.35595 4.5375-2.2427 15.225-4.1928 23.75-6.7499 29.508-7.6394 34.987-7.7116 47.5-0.10459 18.136-1.9593 16.595 19.581 16.272l18.176-0.27227 10.513-47.5 10.513-47.5 16.715-0.27408c13.194-0.21635 16.623-0.006 16.279 1-0.54009 1.5784-26.52 125.07-26.52 126.06 0 0.93129-64.376 0.66886-73.5-0.29962zm128.5-0.0729c-13.558-1.7394-24.952-10.577-28.122-21.814-4.7307-16.767 6.4882-66.745 18.599-82.857 11.757-15.641 33.856-25.36 58.023-25.519 23.105-0.15206 37.638 6.686 44.7 21.032 3.1852 6.4701 3.2989 7.1202 3.2734 18.724-0.0235 10.697-1.4531 21.334-5.0096 37.271l-0.50209 2.25h-41.364-41.364l-0.60297 2.25c-1.9666 7.3384 0.54909 14.091 6.116 16.417 4.0585 1.6958 29.843 3.242 55.004 3.2984 8.3875 0.0188 15.25 0.39655 15.25 0.8394s-1.35 6.9817-3 14.531c-1.65 7.5491-3 13.937-3 14.195 0 0.81759-71.208 0.25306-78-0.61838zm60.466-84.509c-0.044-6.5182-2.3132-10.006-8.2053-12.613-5.8766-2.5995-17.073-2.7872-22.76-0.38154-6.3249 2.6754-13.038 10.016-14.959 16.359l-0.68732 2.2686 23.323-0.26861 23.323-0.26864-0.0344-5.0965zm39.565 80.87c2.48-11.297 25.97-122.08 25.97-122.48 0-0.9207 49.77-1.5565 69.5-0.88791 22.562 0.76461 25.852 1.6405 30.05 8.0021 2.2843 3.4608 4.6927 11.498 5.7963 19.344l0.5275 3.75h-38.918-38.918l-0.69212 2.75c-0.38066 1.5125-5.0093 23-10.286 47.75l-9.5937 45-17.132 0.27318-17.132 0.27318 0.8283-3.7732zm106.73-2.5232c6.0322-14.89 5.2697-26.942-3.5907-56.75-2.6975-9.075-5.2124-18.198-5.5886-20.272l-0.68405-3.7722 18.765 0.27224 18.765 0.27225 3.059 9.8894 3.059 9.8894 2.5342-3.3894c1.3938-1.8642 13.743-19.702 27.444-39.639l24.909-36.25h20.281c11.291 0 20.281 0.39734 20.281 0.89636 0 2.0178-18.74 28.689-30.988 44.104-20.124 25.327-36.318 47.077-42.636 57.265-6.3603 10.257-16.216 30.392-18.837 38.485l-1.7002 5.25h-18.803-18.803l2.5319-6.25zm-578.76-93.17c0-0.77624 1.3912-7.3012 3.0914-14.5l3.0914-13.089h17.909c9.8497 0 17.909 0.21112 17.909 0.46916 0 0.25803-1.35 6.6457-3 14.195-1.65 7.5491-3 13.863-3 14.031 0 0.16785-8.1 0.30518-18 0.30518-14.831 0-18-0.24849-18-1.4114z" fill="#1b222e"/>
</svg>
